<?xml version="1.0" encoding="utf-8"?>
<svg 
	version="1.1" 
	xmlns="http://www.w3.org/2000/svg" 
	xmlns:xlink="http://www.w3.org/1999/xlink" 
	x="0px" 
	y="0px"
	viewBox="0 0 48 48" 
	style="background: #0D1117;" 
	xml:space="preserve"
>
	<path fill="#eee" d="M8.1,37.2c-1.8,0-3.2-0.2-4.3-0.6c-1.1-0.4-1.9-1.1-2.4-2c-0.5-0.9-0.8-2.1-0.8-3.6c0-1.5,0.2-3.3,0.6-5.4
		c0.4-2,0.8-3.6,1.3-5c0.5-1.4,1.2-2.5,2-3.4c0.8-0.9,1.8-1.5,3-1.9c1.2-0.4,2.7-0.6,4.4-0.6c0.7,0,1.5,0.1,2.2,0.2
		c0.8,0.1,1.5,0.2,2.3,0.4c0.7,0.1,1.4,0.2,1.9,0.4L17.7,20c-0.4-0.1-0.9-0.1-1.5-0.2c-0.6-0.1-1.2-0.1-1.8-0.2
		c-0.6,0-1.2-0.1-1.7-0.1c-0.9,0-1.7,0.1-2.4,0.4c-0.6,0.2-1.2,0.6-1.6,1.1c-0.4,0.5-0.8,1.2-1.1,2.1c-0.3,0.9-0.6,1.9-0.8,3.2
		c-0.2,1.2-0.4,2.2-0.4,2.9c0,0.8,0,1.4,0.2,1.8c0.2,0.4,0.5,0.7,1,0.9c0.5,0.2,1.2,0.3,2,0.3c0.9,0,1.9,0,2.9-0.1
		c1-0.1,1.9-0.2,2.6-0.2l-0.4,4.5c-0.5,0.1-1.2,0.2-1.9,0.4c-0.7,0.1-1.5,0.2-2.3,0.3C9.6,37.1,8.8,37.2,8.1,37.2z"/>
	<path fill="#3872FC" d="M25.1,37.2c-1,0-2-0.1-3.1-0.2c-1-0.1-2-0.2-2.9-0.4c-0.9-0.2-1.7-0.3-2.3-0.4l0.8-4.4c0.7,0.1,1.4,0.2,2.3,0.3
		c0.9,0.1,1.8,0.2,2.7,0.3c0.9,0.1,1.6,0.1,2.3,0.1c0.9,0,1.6-0.1,2-0.3c0.5-0.2,0.8-0.5,1.1-0.8c0.2-0.4,0.4-0.7,0.4-1.2
		c0.1-0.4,0-0.6-0.1-0.8c-0.1-0.2-0.4-0.4-0.8-0.5c-0.4-0.1-1-0.3-1.8-0.4c-1.4-0.2-2.5-0.5-3.5-0.8c-0.9-0.4-1.6-0.8-2.1-1.3
		c-0.5-0.6-0.8-1.2-0.9-2c-0.1-0.8-0.1-1.8,0.2-2.9c0.3-1.8,0.9-3.1,1.7-4.1c0.8-0.9,1.8-1.6,3-2c1.2-0.4,2.6-0.5,4.2-0.5
		c0.8,0,1.7,0,2.7,0.1c1,0.1,1.9,0.2,2.8,0.3c0.9,0.1,1.7,0.2,2.3,0.4l-0.7,4.4c-0.6-0.1-1.4-0.1-2.2-0.2c-0.8-0.1-1.7-0.1-2.5-0.2
		c-0.8-0.1-1.6-0.1-2.2-0.1c-0.9,0-1.6,0.1-2,0.3c-0.5,0.2-0.8,0.4-1,0.7c-0.2,0.3-0.3,0.6-0.4,0.9c-0.1,0.4,0,0.7,0.1,0.9
		c0.1,0.2,0.4,0.4,0.8,0.5c0.4,0.1,1,0.3,1.8,0.5c1.4,0.3,2.5,0.6,3.4,1c0.9,0.3,1.6,0.7,2.1,1.2c0.5,0.5,0.8,1.1,0.9,1.9
		c0.1,0.8,0.1,1.8-0.2,2.9c-0.3,1.7-0.9,3.1-1.7,4c-0.8,1-1.8,1.7-3,2.1C28.1,37,26.7,37.2,25.1,37.2z"/>
	<path fill="#ca3535" d="M47.4,10.1c0,1.3,0,2.4,0,3.8h-5.6c0,1.9,0,3.8,0,5.8h-3.9c0-1.8,0-3.9,0-5.8h-5.5c0-1.3,0-2.5,0-3.8h5.6l0-5.6
		h3.8l0,5.6H47.4z"/>
</svg>
