<svg id="a3c6b360-ec9f-495d-bddb-a2adb339afe6" data-name="Calque 1" xmlns="http://www.w3.org/2000/svg" viewBox="0 0 91.88078 95.13795">
  <path id="a4a2f489-51fa-4c0f-8a70-2356467dd570" data-name="small" d="M19.72093,112c3.2844-15.27624,6.5688-30.55248,9.885-45.97656H44.59475C41.49448,81.44,38.42166,96.72,35.34884,112Z" transform="translate(-19.72093 -16.86205)" style="fill: #3972fb"/>
  <path id="ab9b6ed7-081d-4d2c-a88f-ac068aa8899b" data-name="middle" d="M48,112,61.44807,48.1148H77.04076L63.05163,112Z" transform="translate(-19.72093 -16.86205)" style="fill: #3972fb"/>
  <path id="acedfcf9-15c6-4359-ac69-1a1235206cb8" data-name="middle" d="M76.27908,112,96.53261,16.86205h15.0691L91.3307,112Z" transform="translate(-19.72093 -16.86205)" style="fill: #3972fb"/>
  <path d="M104.77176,72.699c0,4.96578-.00912,8.98751-.00912,14.09988H84.04583c0,6.95295-.00182,14.14665-.00182,21.39838H69.79581c0-6.80049-.01717-14.3578-.01717-21.39838H49.30976c.00026-4.7371.10607-9.11466.10607-14.09988H69.91059l-.03875-20.78152H83.899L83.92013,72.699Z" transform="translate(-19.72093 -16.86205)" style="fill: #fe0000"/>
</svg>
